<svg width="90" height="83" viewBox="0 0 90 83" fill="none" xmlns="http://www.w3.org/2000/svg">
<path d="M88.8323 56.7764L83.0076 49.2398C83.262 48.1056 83.1401 46.8866 82.5836 45.7789L81.5236 43.6536C84.0782 43.5688 86.1293 41.47 86.1293 38.8942V34.6171C86.9508 33.8539 87.4649 32.7674 87.4649 31.559V23.503C87.4649 22.5861 87.1575 21.6798 86.5957 20.9484L81.5024 14.3711C81.7144 13.3641 81.5978 12.2829 81.1049 11.3024L76.8755 2.84887C76.0699 1.24297 74.4534 0.241272 72.6567 0.241272H45.7539C43.9572 0.241272 42.3407 1.23767 41.5351 2.84887L37.3057 11.3024C36.8128 12.2829 36.7015 13.3641 36.9082 14.3711L35.1433 16.6554H17.648C15.6658 16.6554 13.8797 17.7578 12.9946 19.5333L8.18749 29.1475C7.63629 30.2499 7.51439 31.4742 7.76349 32.6084L1.93879 40.145C1.31869 40.9453 0.979492 41.9417 0.979492 42.954V52.123C0.979492 53.9568 2.06069 55.5415 3.61889 56.2782V60.9528C3.61889 63.5763 5.75479 65.7122 8.37829 65.7122H11.4099C14.0334 65.7122 16.1693 63.5763 16.1693 60.9528V56.7128H26.87L26.817 56.7817C26.1969 57.582 25.8577 58.5784 25.8577 59.5854V68.7544C25.8577 70.5882 26.9389 72.1729 28.4971 72.9096V77.5842C28.4971 80.2077 30.633 82.3436 33.2565 82.3436H36.2881C38.9116 82.3436 41.0475 80.2077 41.0475 77.5842V73.3442H75.7042V77.5842C75.7042 80.2077 77.8401 82.3436 80.4636 82.3436H83.4952C86.1187 82.3436 88.2546 80.2077 88.2546 77.5842V72.157C89.1874 71.3143 89.7704 70.1006 89.7704 68.7491V59.5801C89.7863 58.5731 89.4471 57.5767 88.8323 56.7764ZM64.9028 50.3899C65.4752 48.7628 67.0281 47.5968 68.8513 47.5968C71.1621 47.5968 73.0383 49.473 73.0383 51.7838C73.0383 51.8845 73.033 51.9799 73.0277 52.0806H64.9028V50.3899ZM68.8513 45.7948C67.3408 45.7948 65.9575 46.3566 64.9028 47.2841C63.652 48.3812 62.8623 49.9924 62.8623 51.7838C62.8623 51.8845 62.8623 51.9799 62.8676 52.0806H62.6238H39.2932C38.7155 52.0806 38.1537 51.911 37.6714 51.5877L36.1026 50.5436C35.3606 50.0507 34.9101 49.261 34.82 48.4236C34.7617 47.883 34.8518 47.3212 35.1115 46.8018L35.4401 46.1446L36.7704 43.4893L37.8304 41.3746L39.6536 37.7282L39.9239 37.1929C40.2684 36.5039 40.8567 35.9951 41.551 35.746C41.6411 35.7142 41.7365 35.6877 41.8266 35.6612C42.0545 35.6029 42.293 35.5764 42.5368 35.5764H44.6038H56.2585H57.5358H60.419H73.1284C73.4729 35.5764 73.8068 35.6347 74.1195 35.746C74.3686 35.8361 74.6018 35.958 74.8138 36.1064C75.2007 36.3767 75.524 36.7477 75.7466 37.1929L78.9637 43.6271L80.5537 46.8071C81.2109 48.1215 80.7869 49.7327 79.5573 50.5489L77.9885 51.593C77.5062 51.9163 76.9444 52.0859 76.3667 52.0859H74.8403C74.8456 51.9905 74.8456 51.8898 74.8456 51.7891C74.8403 48.4819 72.1532 45.7948 68.8513 45.7948ZM83.845 38.8995C83.845 40.2669 82.732 41.3799 81.3646 41.3799H80.3841L77.7765 36.17C77.7023 36.0216 77.6228 35.8785 77.538 35.7407H83.2832C83.474 35.7407 83.6595 35.7301 83.845 35.7036V38.8995ZM84.7831 22.3476C85.0375 22.6762 85.1806 23.0896 85.1806 23.5083V31.5749C85.1806 32.4282 84.6188 33.149 83.845 33.3875C83.6701 33.4405 83.4793 33.4723 83.2885 33.4723H74.8085H74.4534C74.0241 33.361 73.5789 33.3027 73.1231 33.3027H58.6488H57.9174C58.0022 33.0801 58.0658 32.8469 58.1188 32.619C58.3732 31.4848 58.2513 30.2658 57.6948 29.1581L57.3503 28.4638H66.779C67.4097 28.4638 67.9185 27.955 67.9185 27.3243C67.9185 26.6936 67.4097 26.1848 66.779 26.1848H56.2108L52.893 19.5439C52.8082 19.3743 52.7128 19.21 52.6121 19.051H75.5134C76.4462 19.051 77.3525 18.7754 78.1316 18.2613L79.5096 17.3444C79.8276 17.1324 80.1085 16.8886 80.3576 16.6236L84.7831 22.3476ZM39.3462 12.32L43.5756 3.86647C43.989 3.03437 44.8264 2.52027 45.7539 2.52027H72.662C73.5895 2.52027 74.4269 3.03437 74.8403 3.86647L79.0697 12.32C79.6156 13.4171 79.2605 14.758 78.2429 15.4364L76.8649 16.3533C76.4621 16.6236 75.9957 16.7614 75.5134 16.7614H49.2943C48.9498 16.6925 48.6 16.6554 48.2396 16.6554H42.1923C41.9644 16.5865 41.7524 16.4858 41.551 16.3533L40.173 15.4364C39.1554 14.758 38.8003 13.4171 39.3462 12.32ZM38.0636 16.613C38.0795 16.6289 38.0954 16.6448 38.1113 16.6607H38.0265L38.0636 16.613ZM10.2227 30.1704L15.0298 20.5615C15.528 19.5651 16.5297 18.945 17.648 18.945H33.3837H36.2669H41.9061H48.2396C48.5099 18.945 48.7749 18.9821 49.0293 19.051C49.8137 19.2683 50.4815 19.8089 50.8578 20.5615L53.6668 26.1795L54.8063 28.4585L55.6596 30.1704C56.179 31.2092 56.0253 32.4282 55.3363 33.2974H42.5315C42.2082 33.2974 41.8902 33.3292 41.5775 33.3822C41.4503 33.4034 41.3231 33.4352 41.2012 33.467C40.0405 33.7691 39.0229 34.4687 38.3127 35.4492H33.5851H33.2777H14.4097C13.832 35.4492 13.2702 35.2796 12.7879 34.9563L11.2191 33.9122C9.99479 33.0907 9.56549 31.4848 10.2227 30.1704ZM13.8956 60.9475C13.8956 62.3149 12.7826 63.4279 11.4152 63.4279H8.38359C7.01619 63.4279 5.90319 62.3149 5.90319 60.9475V56.7075H13.8956V60.9475ZM16.1746 54.4285V54.3331H4.91209C3.95809 54.0522 3.25849 53.1671 3.25849 52.1177V42.9487C3.25849 42.4399 3.42809 41.9364 3.74079 41.5389L8.89239 34.8715C9.19449 35.2213 9.54959 35.5393 9.95239 35.8096L11.5212 36.8537C12.3798 37.4261 13.3762 37.7282 14.4097 37.7282H33.283H35.562H37.1043L35.8959 40.145L34.7829 42.371L33.0763 45.7895C33.018 45.9114 32.9597 46.028 32.912 46.1499H25.3118C24.6811 46.1499 24.1723 46.6587 24.1723 47.2894C24.1723 47.9201 24.6811 48.4289 25.3118 48.4289H32.5304C32.5463 48.7045 32.5834 48.9801 32.647 49.2504L28.6402 54.4391H16.1746V54.4285ZM38.7844 77.5842C38.7844 78.9516 37.6714 80.0646 36.304 80.0646H33.2724C31.905 80.0646 30.792 78.9516 30.792 77.5842V73.3442H38.7844V77.5842ZM41.0634 71.0599V70.9645H29.8009C28.8469 70.6783 28.1473 69.7932 28.1473 68.7491V59.5801C28.1473 59.0713 28.3169 58.5678 28.6296 58.165L29.7585 56.7022L31.5181 54.4232L33.7812 51.4976C34.0833 51.8474 34.4384 52.1654 34.8412 52.4357L36.41 53.4798C37.2686 54.0522 38.265 54.3543 39.2985 54.3543H60.8854H63.4506H64.3251H65.56H72.1585H74.2626H76.3667C77.3949 54.3543 78.3966 54.0522 79.2552 53.4798L80.824 52.4357C81.2268 52.1654 81.5819 51.8527 81.884 51.4976L87.0356 58.165C87.3483 58.5678 87.5179 59.066 87.5179 59.5801V68.7491C87.5179 69.7932 86.8183 70.6783 85.8643 70.9645H75.7254V71.0599H41.0634ZM85.9915 77.5842C85.9915 78.9516 84.8785 80.0646 83.5111 80.0646H80.4795C79.1121 80.0646 77.9991 78.9516 77.9991 77.5842V73.3442H85.2018C85.4721 73.3442 85.7371 73.323 85.9915 73.2753V77.5842Z" fill="#949FA3"/>
</svg>
