<svg width="77" height="92" viewBox="0 0 77 92" fill="none" xmlns="http://www.w3.org/2000/svg">
<path d="M70.7443 7.60373H50.0184L44.54 3.00273C41.314 0.295631 36.6327 0.290281 33.396 2.98133L27.8534 7.59838H6.9402C3.56435 7.59838 0.814453 10.3429 0.814453 13.7241V85.4302C0.814453 88.8061 3.56435 91.556 6.9402 91.556H70.7443C74.1202 91.556 76.8701 88.8114 76.8701 85.4302V13.7241C76.8701 10.3483 74.1202 7.60373 70.7443 7.60373ZM35.0063 4.91268C37.3015 2.99738 40.6345 3.00273 42.9243 4.92873L46.1076 7.60373L49.1678 10.1717L54.4161 14.5748C54.7425 14.8476 54.812 15.3238 54.5766 15.6769L54.1486 16.3189L52.4848 18.8334L52.3724 19.0046C52.2173 19.24 51.9551 19.3791 51.6769 19.3791H26.1414C25.8578 19.3791 25.601 19.24 25.4459 19.0046L25.3335 18.8334L23.6697 16.3189L23.247 15.6822C23.0116 15.3291 23.0812 14.853 23.4075 14.5801L28.6987 10.1717L31.7803 7.60373L35.0063 4.91268ZM22.3161 18.8334L23.3487 20.3902C23.9693 21.3318 25.0125 21.8936 26.1414 21.8936H51.6769C52.8058 21.8936 53.849 21.3318 54.4696 20.3902L55.5022 18.8334H62.8745C64.3939 18.8334 65.6351 20.0692 65.6351 21.594V76.5117C65.6351 78.0312 64.3992 79.2724 62.8745 79.2724H15.5965C14.0771 79.2724 12.8359 78.0365 12.8359 76.5117V21.594C12.8359 20.0746 14.0718 18.8334 15.5965 18.8334H22.3161ZM74.3021 85.4302C74.3021 87.3937 72.7078 88.988 70.7443 88.988H6.9402C4.9821 88.988 3.38245 87.3937 3.38245 85.4302V13.7241C3.38245 11.7607 4.97675 10.1664 6.9402 10.1664H24.7718L21.7972 12.6434C20.7004 13.5583 20.3259 15.0295 20.7753 16.3189H15.5965C12.6915 16.3189 10.3214 18.6836 10.3214 21.594V76.5117C10.3214 79.4221 12.6861 81.7868 15.5965 81.7868H62.8745C65.7849 81.7868 68.1496 79.4221 68.1496 76.5117V21.594C68.1496 18.6889 65.7849 16.3189 62.8745 16.3189H57.0376C57.487 15.0295 57.1179 13.5583 56.0265 12.6488L53.0733 10.1717H70.7443C72.7078 10.1717 74.3021 11.766 74.3021 13.7295V85.4302Z" fill="#949FA3"/>
<path d="M45.5561 41.4853H57.936C58.6315 41.4853 59.1932 40.9235 59.1932 40.228C59.1932 39.5325 58.6315 38.9708 57.936 38.9708H45.5561C44.8606 38.9708 44.2988 39.5325 44.2988 40.228C44.2988 40.9235 44.8659 41.4853 45.5561 41.4853Z" fill="#949FA3"/>
<path d="M57.9367 48.3226H48.4565C47.761 48.3226 47.1992 48.8843 47.1992 49.5798C47.1992 50.2753 47.761 50.8371 48.4565 50.8371H57.9367C58.6322 50.8371 59.1939 50.2753 59.1939 49.5798C59.1939 48.8843 58.6322 48.3226 57.9367 48.3226Z" fill="#949FA3"/>
<path d="M19.0365 31.973C19.7321 31.973 20.2938 31.4112 20.2938 30.7157V26.4197C20.2938 25.7242 19.7321 25.1624 19.0365 25.1624C18.341 25.1624 17.7793 25.7242 17.7793 26.4143V30.7104C17.7793 31.4059 18.3464 31.973 19.0365 31.973Z" fill="#949FA3"/>
<path d="M24.5522 31.973C25.2477 31.973 25.8094 31.4112 25.8094 30.7157V26.4197C25.8094 25.7242 25.2477 25.1624 24.5522 25.1624C23.8567 25.1624 23.2949 25.7242 23.2949 26.4197V30.7157C23.2949 31.4059 23.8567 31.973 24.5522 31.973Z" fill="#949FA3"/>
<path d="M30.0678 31.973C30.7633 31.973 31.325 31.4112 31.325 30.7157V26.4197C31.325 25.7242 30.7633 25.1624 30.0678 25.1624C29.3723 25.1624 28.8105 25.7242 28.8105 26.4197V30.7157C28.8105 31.4059 29.3723 31.973 30.0678 31.973Z" fill="#949FA3"/>
<path d="M35.5834 31.973C36.2789 31.973 36.8407 31.4112 36.8407 30.7157V26.4197C36.8407 25.7242 36.2789 25.1624 35.5834 25.1624C34.8879 25.1624 34.3262 25.7242 34.3262 26.4197V30.7157C34.3262 31.4059 34.8879 31.973 35.5834 31.973Z" fill="#949FA3"/>
<path d="M41.0951 31.973C41.7906 31.973 42.3524 31.4112 42.3524 30.7157V26.4197C42.3524 25.7242 41.7906 25.1624 41.0951 25.1624C40.3996 25.1624 39.8379 25.7242 39.8379 26.4197V30.7157C39.8379 31.4059 40.405 31.973 41.0951 31.973Z" fill="#949FA3"/>
<path d="M36.6928 12.178H40.9889C41.6844 12.178 42.2461 11.6162 42.2461 10.9207C42.2461 10.2252 41.6844 9.66345 40.9889 9.66345H36.6928C35.9973 9.66345 35.4355 10.2252 35.4355 10.9207C35.4355 11.6162 36.0026 12.178 36.6928 12.178Z" fill="#949FA3"/>
<path d="M46.6108 31.973C47.3063 31.973 47.868 31.4112 47.868 30.7157V26.4197C47.868 25.7242 47.3063 25.1624 46.6108 25.1624C45.9153 25.1624 45.3535 25.7242 45.3535 26.4197V30.7157C45.3535 31.4059 45.9153 31.973 46.6108 31.973Z" fill="#949FA3"/>
<path d="M52.1264 31.973C52.8219 31.973 53.3837 31.4112 53.3837 30.7157V26.4197C53.3837 25.7242 52.8219 25.1624 52.1264 25.1624C51.4309 25.1624 50.8691 25.7242 50.8691 26.4197V30.7157C50.8691 31.4059 51.4309 31.973 52.1264 31.973Z" fill="#949FA3"/>
<path d="M57.642 31.973C58.3375 31.973 58.8993 31.4112 58.8993 30.7157V26.4197C58.8993 25.7242 58.3375 25.1624 57.642 25.1624C56.9465 25.1624 56.3848 25.7242 56.3848 26.4197V30.7157C56.3848 31.4059 56.9465 31.973 57.642 31.973Z" fill="#949FA3"/>
<path d="M57.9356 57.6691H41.7358C41.0403 57.6691 40.4785 58.2308 40.4785 58.9263C40.4785 59.6218 41.0403 60.1836 41.7358 60.1836H57.9356C58.6311 60.1836 59.1929 59.6218 59.1929 58.9263C59.1929 58.2308 58.6311 57.6691 57.9356 57.6691Z" fill="#949FA3"/>
<path d="M57.9366 67.0209H21.1928C20.4973 67.0209 19.9355 67.5826 19.9355 68.2781C19.9355 68.9736 20.4973 69.5354 21.1928 69.5354H57.9366C58.6321 69.5354 59.1939 68.9736 59.1939 68.2781C59.1939 67.5826 58.6321 67.0209 57.9366 67.0209Z" fill="#949FA3"/>
<path d="M20.0166 53.4693H21.6216C22.0336 53.4693 22.3706 53.8063 22.3706 54.2183V55.8233C22.3706 57.4604 23.6974 58.7872 25.3345 58.7872H28.8227C30.4598 58.7872 31.7866 57.4604 31.7866 55.8233V54.2183C31.7866 53.8063 32.1237 53.4693 32.5356 53.4693H34.1406C35.7777 53.4693 37.1045 52.1425 37.1045 50.5054V47.0225C37.1045 45.3854 35.7777 44.0586 34.1406 44.0586H32.5356C32.1237 44.0586 31.7866 43.7216 31.7866 43.3096V41.7046C31.7866 40.0675 30.4598 38.7407 28.8227 38.7407H25.3345C23.6974 38.7407 22.3706 40.0675 22.3706 41.7046V43.3096C22.3706 43.7216 22.0336 44.0586 21.6216 44.0586H20.0166C18.3795 44.0586 17.0527 45.3854 17.0527 47.0225V50.5107C17.0581 52.1425 18.3849 53.4693 20.0166 53.4693ZM19.4709 47.2205C19.4709 46.8085 19.808 46.4715 20.2199 46.4715H24.0398C24.4518 46.4715 24.7888 46.1344 24.7888 45.7225V41.9026C24.7888 41.4906 25.1259 41.1536 25.5378 41.1536H28.6248C29.0367 41.1536 29.3738 41.4906 29.3738 41.9026V45.7225C29.3738 46.1344 29.7108 46.4715 30.1228 46.4715H33.9373C34.3493 46.4715 34.6863 46.8085 34.6863 47.2205V50.3074C34.6863 50.7194 34.3493 51.0564 33.9373 51.0564H30.1174C29.7055 51.0564 29.3684 51.3935 29.3684 51.8054V55.6253C29.3684 56.0373 29.0314 56.3743 28.6194 56.3743H25.5325C25.1205 56.3743 24.7835 56.0373 24.7835 55.6253V51.8054C24.7835 51.3935 24.4464 51.0564 24.0345 51.0564H20.2146C19.8026 51.0564 19.4656 50.7194 19.4656 50.3074V47.2205H19.4709Z" fill="#949FA3"/>
</svg>
